<?xml version="1.0" encoding="utf-8"?>
<!-- Generator: Adobe Illustrator 16.0.0, SVG Export Plug-In . SVG Version: 6.00 Build 0)  -->
<!DOCTYPE svg PUBLIC "-//W3C//DTD SVG 1.1//EN" "http://www.w3.org/Graphics/SVG/1.1/DTD/svg11.dtd">
<svg version="1.1" xmlns="http://www.w3.org/2000/svg" xmlns:xlink="http://www.w3.org/1999/xlink" x="0px" y="0px" width="792px"
	 height="612px" viewBox="0 0 792 612" enable-background="new 0 0 792 612" xml:space="preserve">
<g id="Layer_4">
</g>
<g id="Layer_5">
</g>
<g id="Layer_1">
	<circle cx="-419.869" cy="340.338" r="250"/>
	<g>
		<polygon fill="#BDDA75" points="-302.786,321.521 -321.065,364.526 -184.667,407.686 		"/>
		<polygon fill="#BDDA75" points="-377.688,472.068 -311.525,316.926 -387.819,406.805 -378.403,471.563 		"/>
		<polygon fill="#BDDA75" points="-419.868,444.763 -436.882,374.252 -451.918,478 -387.819,478 -402.856,374.252 		"/>
		<polygon fill="#BDDA75" points="-452.388,262.611 -387.349,262.611 -419.869,176.792 		"/>
		<polygon fill="#BDDA75" points="-387.063,271.719 -452.675,271.719 -419.869,407.686 		"/>
		<polygon fill="#BDDA75" points="-536.953,321.521 -518.673,364.524 -655.07,407.687 		"/>
		<polygon fill="#BDDA75" points="-462.047,472.068 -528.213,316.928 -451.918,406.806 -461.333,471.563 		"/>
	</g>
	
		<text transform="matrix(2.274 0 0 1 1089.5625 568.3506)" fill="#677A58" font-family="'Microsoft-Yi-Baiti'" font-size="118.5789">PTERO</text>
	
		<text transform="matrix(2.274 0 0 1 1089.5625 564.3506)" fill="#B4D998" font-family="'Microsoft-Yi-Baiti'" font-size="118.5789">PTERO</text>
	<rect x="1617.366" y="564.351" fill="#677A58" width="4.75" height="4"/>
	<g>
		<polygon fill="#677A58" points="1607.494,226.685 1578.348,293.909 1795.836,361.373 		"/>
		<polygon fill="#B4D998" points="1497.787,466.33 1603.287,223.817 1481.633,364.313 1496.648,465.538 		"/>
		<polygon fill="#677A58" points="1441.219,416.259 1414.092,306.039 1390.115,468.215 1492.322,468.215 1468.346,306.038 		"/>
		<polygon fill="#677A58" points="1389.365,177.799 1493.072,177.799 1441.219,43.649 		"/>
		<polygon fill="#B4D998" points="1493.529,182.799 1388.909,182.799 1441.219,395.337 		"/>
		<polygon fill="#677A58" points="1274.943,226.685 1304.09,293.909 1086.602,361.373 		"/>
		<polygon fill="#B4D998" points="1384.65,466.33 1279.15,223.817 1400.805,364.313 1385.789,465.538 		"/>
	</g>
	<g>
		<polygon fill="#BDDA75" points="562.775,211.753 533.629,278.978 751.117,346.441 		"/>
		<polygon fill="#BDDA75" points="453.068,451.398 558.568,208.885 436.914,349.381 451.93,450.606 		"/>
		<polygon fill="#BDDA75" points="396.5,401.327 369.373,291.107 345.396,453.283 447.604,453.283 423.627,291.106 		"/>
		<polygon fill="#BDDA75" points="344.646,162.867 448.354,162.867 396.5,28.717 		"/>
		<polygon fill="#BDDA75" points="448.811,167.867 344.19,167.867 396.5,380.405 		"/>
		<polygon fill="#BDDA75" points="230.225,211.753 259.371,278.978 41.883,346.441 		"/>
		<polygon fill="#BDDA75" points="339.932,451.398 234.432,208.885 356.086,349.381 341.07,450.606 		"/>
	</g>
	<rect id="_x3C_Slice_x3E_" x="-685" y="74" fill="none" width="546" height="547"/>
	<rect id="_x3C_Slice_x3E__1_" x="-59" y="-40" fill="none" width="936" height="731"/>
	<g>
		<g>
			<path fill="#BDDA75" d="M169.79,503.62c0-3.51-1.47-6.41-4.41-8.68c-2.94-2.28-6.89-4.091-11.85-5.421
				c-4.96-1.329-10.69-2.25-17.18-2.75c-6.5-0.5-13.26-0.75-20.28-0.75h-52.4v67.9h10.54v-26.75h43.18
				c17.12,0,30.13-1.62,39.04-4.86c8.91-3.25,13.36-7.979,13.36-14.189c0-0.76-0.07-1.5-0.22-2.2
				C169.72,505.18,169.79,504.41,169.79,503.62z M156.49,509.96c-1.49,1.76-3.88,3.23-7.17,4.43c-3.29,1.2-7.53,2.101-12.71,2.721
				c-5.18,0.62-11.45,0.93-18.82,0.93H74.21v-22.89h43.05c5.53,0,10.8,0.159,15.8,0.46c5,0.31,9.41,0.939,13.23,1.89
				c3.82,0.94,6.85,2.28,9.09,4.02c1.61,1.261,2.64,2.79,3.09,4.61C158.13,507.53,157.48,508.8,156.49,509.96z"/>
		</g>
		<g>
			<polygon fill="#BDDA75" points="299.35,486.02 299.35,495.15 248.92,495.15 248.92,553.92 238.39,553.92 238.39,495.15 
				188.49,495.15 188.49,486.02 			"/>
			<polygon fill="#BDDA75" points="429.56,544.79 429.56,553.92 325.42,553.92 325.42,486.02 426.01,486.02 426.01,495.15 
				335.95,495.15 335.95,514.1 420.35,514.1 420.35,523.23 335.95,523.23 335.95,544.79 			"/>
			<path fill="#BDDA75" d="M562.54,532.17c-1.32-1.51-2.48-2.84-3.49-4s-2.149-2.22-3.42-3.18c-0.91-0.7-1.95-1.36-3.12-2
				c1.771-0.32,3.42-0.7,4.96-1.12c3.73-1.021,6.8-2.26,9.221-3.7c2.409-1.45,4.21-3.09,5.399-4.93
				c1.18-1.83,1.771-3.811,1.771-5.931c0-0.8-0.07-1.569-0.23-2.31c0.16-0.71,0.23-1.44,0.23-2.19c0-3.399-1.311-6.189-3.95-8.369
				c-2.63-2.181-6.16-3.891-10.59-5.12c-4.44-1.24-9.49-2.09-15.15-2.58c-5.66-0.48-11.52-0.721-17.57-0.721H461.69v67.9h10.529
				v-28.6h50.431c3.949,0,7.39,0.31,10.33,0.92c2.939,0.62,5.55,1.46,7.84,2.52c2.279,1.061,4.279,2.311,5.989,3.74
				c1.71,1.42,3.271,2.95,4.671,4.57l14.35,16.85h11.59v-4.5L562.54,532.17z M540.55,515.49c-5.09,0.46-11.189,0.689-18.3,0.689
				h-50.03V495.15h53.061c12.46,0,21.83,0.939,28.109,2.81c5.21,1.55,8.25,3.96,9.13,7.23c-0.35,1.46-1.05,2.75-2.09,3.869
				c-1.58,1.7-4.01,3.08-7.3,4.141C549.83,514.26,545.64,515.03,540.55,515.49z"/>
			<path fill="#BDDA75" d="M738.44,517.52c0-4.939-1.69-9.42-5.07-13.439c-3.38-4.01-8.07-7.45-14.08-10.3
				c-6.021-2.86-13.19-5.061-21.53-6.601c-8.34-1.55-17.43-2.319-27.26-2.319c-9.92,0-19.02,0.77-27.32,2.319
				c-8.29,1.54-15.47,3.73-21.52,6.57c-6.061,2.83-10.78,6.26-14.16,10.28c-3.38,4.01-5.07,8.51-5.07,13.489
				c0,0.761,0.04,1.511,0.13,2.24c-0.09,0.74-0.13,1.49-0.13,2.26c0,4.94,1.67,9.431,5.011,13.49c3.329,4.05,8.01,7.521,14.02,10.42
				c6.01,2.891,13.19,5.141,21.53,6.74c8.34,1.61,17.51,2.41,27.51,2.41c10.01,0,19.16-0.8,27.46-2.41
				c8.29-1.6,15.44-3.86,21.46-6.77c6.01-2.91,10.68-6.4,14.021-10.45c3.329-4.05,5-8.53,5-13.431c0-0.77-0.04-1.52-0.131-2.26
				C738.4,519.02,738.44,518.28,738.44,517.52z M723.17,529.59c-2.81,3.53-6.76,6.51-11.85,8.94
				c-5.09,2.439-11.13,4.279-18.101,5.529c-6.979,1.261-14.6,1.891-22.85,1.891s-15.86-0.63-22.84-1.891
				c-6.98-1.25-12.99-3.09-18.04-5.529c-5.05-2.431-8.971-5.41-11.78-8.94c-2.33-2.93-3.7-6.21-4.09-9.82
				c0.39-3.609,1.78-6.859,4.149-9.739c2.851-3.471,6.83-6.4,11.921-8.771c5.09-2.38,11.119-4.18,18.1-5.41
				c6.979-1.239,14.64-1.859,22.979-1.859c8.16,0,15.69,0.609,22.58,1.83c6.891,1.21,12.86,3.01,17.9,5.38
				c5.05,2.38,9,5.3,11.85,8.77c2.381,2.891,3.761,6.15,4.15,9.79C726.87,523.37,725.51,526.65,723.17,529.59z"/>
		</g>
	</g>
</g>
<g id="Layer_2">
</g>
<g id="Layer_3">
</g>
</svg>
